<svg xmlns="http://www.w3.org/2000/svg" xmlns:xlink="http://www.w3.org/1999/xlink" version="1.1" x="0px" y="0px" viewBox="0 0 64 80" style="enable-background:new 0 0 64 64;" xml:space="preserve"><g><g><path d="M57.9,11.4H6.1c-2.6,0-4.8,2.1-4.8,4.8v31.6c0,2.6,2.1,4.8,4.8,4.8h51.7c2.6,0,4.8-2.1,4.8-4.8V16.2    C62.6,13.6,60.5,11.4,57.9,11.4z M34.3,36.6h7.9v3.1h-7.9V36.6z M21.7,36.6h7.9v3.1h-7.9V36.6z M9.1,36.6h7.9v3.1H9.1V36.6z     M54.8,47.5H9.1v-3.1h45.7V47.5z M54.9,39.6H47v-3.1h7.9V39.6z M47.4,31.8c-1.5,0-2.8-0.4-4-1.2c-1.2,0.8-2.5,1.2-3.9,1.2    c-4,0-7.3-3.3-7.3-7.3c0-4,3.3-7.3,7.3-7.3c1.4,0,2.8,0.4,3.9,1.2c1.1-0.7,2.5-1.2,4-1.2c4,0,7.3,3.3,7.3,7.3    C54.7,28.5,51.4,31.8,47.4,31.8z"/><path d="M41.6,20.1c-0.6-0.3-1.3-0.5-2.1-0.5c-2.7,0-4.9,2.2-4.9,4.9c0,2.7,2.2,4.9,4.9,4.9c0.7,0,1.4-0.2,2.1-0.5    c-0.9-1.2-1.5-2.7-1.5-4.4C40.1,22.8,40.6,21.3,41.6,20.1z"/><circle cx="47.4" cy="24.5" r="4.9"/></g></g></svg>