<svg xmlns="http://www.w3.org/2000/svg" data-name="Layer 1" viewBox="0 0 100 125" x="0px" y="0px"><path d="M6.23,3.68c1.49.39,3.06.73,4.69,1l1.23.21c.42.07.85.13,1.18.21A5.76,5.76,0,0,1,15.25,6a5.44,5.44,0,0,1,2.26,3.22c.05.15.06.32.09.48l.11.65.23,1.35.49,2.7c1.66,8.69,3.27,17.39,5,26.08q1.29,6.52,2.7,13L27.58,60l.76,3.25.19.81.1.41.14.54a9,9,0,0,0,.92,2.16,9.53,9.53,0,0,0,7.48,5l.89,0h.65l1.31,0,2.62,0,5.24.06q5.24,0,10.47,0c7,0,13.94-.17,20.89-.48,4-.18,7.24-.88,6.94-2.27s-3.07-2.2-7.13-2.35c-7.29-.27-14.64-.56-21.94-.52-5.88,0-11.76.12-17.64.23-.69,0-1.6,0-2,0a4.43,4.43,0,0,1-1.42-.34,4.57,4.57,0,0,1-2.18-2,4.41,4.41,0,0,1-.31-.68,2.74,2.74,0,0,1-.12-.37c0-.1-.08-.28-.12-.47L32.84,61l-1-4.29q-.25-1.93-.54-3.87c.36.1.76.2,1.19.29a137.23,137.23,0,0,0,25.18,2.45L73.4,56l7.88.16,1,0c.33,0,.61,0,1.17,0a8,8,0,0,0,6.93-4.85,7.42,7.42,0,0,0,.46-1.42l.08-.35,0-.24L91,48.8l.36-1.94L92.13,43l1.4-7.77q1.37-7.78,2.59-15.61l0-.13a2.73,2.73,0,0,0-2.76-3.13l-2.11,0-8.1-.17c-17.13-.26-34.26-.33-51.31.3a25.17,25.17,0,0,0-7.47,1.08L22.65,9.68l-.22-1A10.74,10.74,0,0,0,22,7.33,9.75,9.75,0,0,0,16,1.51,9.51,9.51,0,0,0,13.12,1L11.06,1l-4-.05a6,6,0,0,0-2.91.89C3.22,2.57,4.43,3.21,6.23,3.68ZM31,50.87c-.74-4.76-1.59-9.51-2.53-14.26a25.62,25.62,0,0,0,8.72,1.82l2.57.14c.07.37.14.75.23,1.12,0,.57,0,1.14.05,1.71a48.29,48.29,0,0,0,1.24,9.09c-2.59,0-5.19,0-7.77-.06A8.79,8.79,0,0,0,31,50.87ZM70.54,40.62a46.28,46.28,0,0,0-1.1,9.84l-9.33,0a1.8,1.8,0,0,0,.07-.26,32.78,32.78,0,0,0,.52-5.4c0-1.89-.18-3.77-.33-5.65,1,0,1.91-.06,2.87-.12s2.16.13,3.24.17q2.18.08,4.36.13C70.73,39.77,70.63,40.2,70.54,40.62ZM56,25.25c-.29,2.86-.68,5.72-.77,8.59a103,103,0,0,0-10.6-.57c0-4-.87-7.88-1.24-11.82,4.61.12,9.23.19,13.84.2A8,8,0,0,0,56,25.25ZM46.28,50.5a30.34,30.34,0,0,0-.22-4.76c-.34-2.31-.83-4.61-1.31-6.9,3.52.19,7,.34,10.58.37,0,.25-.06.51-.08.76a40.11,40.11,0,0,0,.3,10.3c0,.08,0,.15.06.23Zm39.44-3.94-.24,1.2c-.07.37-.17.9-.21,1a2.55,2.55,0,0,1-.54,1,2.48,2.48,0,0,1-.9.62,2.55,2.55,0,0,1-.52.15c-.09,0-.18,0-.27,0h-.42l-8.18,0a27.61,27.61,0,0,0,.85-4.1c.26-2.31.36-4.64.48-7,3.74,0,7.48-.14,11.21-.48l.34,0Q86.49,42.71,85.72,46.56Zm5.19-25.3-1,6.26c-.57,2.33-1.11,4.68-1.64,7a6.09,6.09,0,0,0-1.39-.26c-3.24-.24-6.5-.49-9.75-.51,1.08-4,1.13-8.25,1.89-12.34Zm-15.63.24a8.53,8.53,0,0,0-2,3.92c-.64,2.81-1.37,5.61-1.85,8.44-3.6.1-7.19.26-10.79.4.92-4.18.4-8.42.54-12.63Q68.23,21.6,75.28,21.5Zm-43.19-.37,7.86.23A8.44,8.44,0,0,0,38.83,26c.08,2.43.09,4.86.25,7.28-3.77,0-7.55.08-11.31,0q-.8-3.94-1.66-7.87L24.94,20A23.14,23.14,0,0,0,32.09,21.13Zm9.1,66.11A4.93,4.93,0,0,0,41.91,92a4.46,4.46,0,0,0,5,1.35,13.9,13.9,0,0,0,5-3.37c.53-.54,1.17-1.08,1.9-.68a1.65,1.65,0,0,1,.77,1.38A10.42,10.42,0,0,1,50.76,97a9.78,9.78,0,0,1-7.09,2,9.08,9.08,0,0,1-6.32-3.65A8,8,0,0,1,36,88.6,9,9,0,0,1,46.49,80a8.2,8.2,0,0,1,4.29,2.2,8.67,8.67,0,0,1,2.35,4.06,2.6,2.6,0,0,1-.28,2.13,2,2,0,0,1-1.55.83,2.54,2.54,0,0,1-1.61-.44,3.07,3.07,0,0,1-.89-.93,4.91,4.91,0,0,0-3.1-2.26,4.29,4.29,0,0,0-3.6.79A5,5,0,0,0,41.19,87.24Zm28.15,0A4.93,4.93,0,0,0,70.06,92a4.46,4.46,0,0,0,5,1.35,13.9,13.9,0,0,0,5-3.37c.53-.54,1.17-1.08,1.9-.68a1.65,1.65,0,0,1,.77,1.38A10.42,10.42,0,0,1,78.91,97a9.78,9.78,0,0,1-7.09,2,9.08,9.08,0,0,1-6.32-3.65,8,8,0,0,1-1.33-6.76A9,9,0,0,1,74.63,80a8.2,8.2,0,0,1,4.29,2.2,8.67,8.67,0,0,1,2.35,4.06A2.6,2.6,0,0,1,81,88.35a2,2,0,0,1-1.55.83,2.54,2.54,0,0,1-1.61-.44,3.07,3.07,0,0,1-.89-.93,4.91,4.91,0,0,0-3.1-2.26,4.29,4.29,0,0,0-3.6.79A5,5,0,0,0,69.34,87.24Z"/></svg>