<svg xmlns="http://www.w3.org/2000/svg" xmlns:xlink="http://www.w3.org/1999/xlink" version="1.1" x="0px" y="0px" viewBox="0 0 47 58.75" enable-background="new 0 0 47 47" xml:space="preserve"><path d="M40.34,1.375H6.661c-0.829,0-1.5,0.671-1.5,1.5v41.25c0,0.828,0.671,1.5,1.5,1.5H40.34c0.828,0,1.5-0.672,1.5-1.5V2.875  C41.84,2.046,41.168,1.375,40.34,1.375z M17.82,4.375h11.36v3.918H17.82V4.375z M17.048,22.312c0-1.661,1.148-3.089,2.912-3.912  c-0.243-0.51-0.39-1.075-0.39-1.677c0-2.168,1.764-3.931,3.931-3.931c2.166,0,3.929,1.764,3.929,3.931  c0,0.602-0.146,1.166-0.39,1.677c1.765,0.822,2.913,2.252,2.913,3.912v1.336c0,0.829-0.672,1.5-1.5,1.5h-9.905  c-0.829,0-1.5-0.672-1.5-1.5V22.312z M30.68,39.535H16.32c-0.829,0-1.5-0.672-1.5-1.5s0.671-1.5,1.5-1.5h14.36  c0.828,0,1.5,0.672,1.5,1.5S31.508,39.535,30.68,39.535z M30.68,35.096H16.32c-0.829,0-1.5-0.672-1.5-1.5s0.671-1.5,1.5-1.5h14.36  c0.828,0,1.5,0.672,1.5,1.5S31.508,35.096,30.68,35.096z M30.68,30.654H16.32c-0.829,0-1.5-0.672-1.5-1.5c0-0.827,0.671-1.5,1.5-1.5  h14.36c0.828,0,1.5,0.673,1.5,1.5C32.18,29.982,31.508,30.654,30.68,30.654z"/><path d="M23.501,20.655c-1.913,0-3.218,0.844-3.413,1.493h6.826C26.718,21.499,25.414,20.655,23.501,20.655z"/><circle cx="23.5" cy="16.724" r="0.931"/><text x="0" y="62" fill="#000000" font-size="5px" font-weight="bold" font-family="'Helvetica Neue', Helvetica, Arial-Unicode, Arial, Sans-serif">Created by Adnen Kadri</text><text x="0" y="67" fill="#000000" font-size="5px" font-weight="bold" font-family="'Helvetica Neue', Helvetica, Arial-Unicode, Arial, Sans-serif">from the Noun Project</text></svg>