<svg xmlns="http://www.w3.org/2000/svg" xmlns:xlink="http://www.w3.org/1999/xlink" version="1.1" x="0px" y="0px" viewBox="0 0 100 125" enable-background="new 0 0 100 100" xml:space="preserve"><g><path d="M71.363,17.335h-0.281l-6.944-6.908l-6.944,6.908h-0.26l-6.944-6.908l-6.944,6.908h-0.26l-6.944-6.908l-6.944,6.908h-0.26   l-6.944-6.908v79.146l7.001-6.98h0.168l7.001,6.98l7.001-6.98h0.146l7.001,6.98l7.001-6.98h0.146l7.001,6.98l7.001-6.98h0.146   l7.001,6.98V10.427L71.363,17.335z M67.68,66.5H32.32v-7H67.68V66.5z M67.68,53.5H32.32v-7H67.68V53.5z M67.68,40.5H32.32v-7H67.68   V40.5z"/></g></svg>