<svg xmlns="http://www.w3.org/2000/svg" xmlns:xlink="http://www.w3.org/1999/xlink" version="1.1" x="0px" y="0px" viewBox="0 0 24 30" enable-background="new 0 0 24 24" xml:space="preserve"><path fill-rule="evenodd" clip-rule="evenodd" d="M9.068,13.43c0.945,0,1.712,0.766,1.712,1.711s-0.767,1.712-1.712,1.712  s-1.711-0.767-1.711-1.712S8.123,13.43,9.068,13.43L9.068,13.43z M4.945,8.728h-3.22C1.437,8.728,1.2,8.964,1.2,9.252l0,0  c0,0.289,0.237,0.525,0.525,0.525h3.22V8.728L4.945,8.728z M4.945,11.668H2.496c-0.288,0-0.525,0.236-0.525,0.525l0,0  c0,0.289,0.236,0.525,0.525,0.525h2.449V11.668L4.945,11.668z M4.945,10.198H3.449c-0.289,0-0.525,0.236-0.525,0.525l0,0  c0,0.289,0.236,0.525,0.525,0.525h1.496V10.198L4.945,10.198z M16.147,9.053c-0.085,0-0.155,0.07-0.155,0.155v4.494h-0.428v-6.36  c0-0.107-0.087-0.194-0.194-0.194H5.8c-0.107,0-0.194,0.087-0.194,0.194v6.36H5.509c-0.31,0-0.564,0.253-0.564,0.563v0.312  c0,0.311,0.254,0.563,0.564,0.563h0.447v0.896c0.338,0,0.895-0.535,0.895-0.896c0-1.224,0.993-2.217,2.217-2.217  s2.218,0.993,2.218,2.217h4.728v0.896c0.338,0,0.896-0.535,0.896-0.896c0-1.224,0.992-2.217,2.217-2.217s2.218,0.993,2.218,2.217  h0.892c0.311,0,0.564-0.253,0.564-0.563v-0.312c0-0.311-0.254-0.563-0.564-0.563h-0.428v-0.837l-2.022-3.657  c-0.041-0.074-0.07-0.155-0.155-0.155H16.147L16.147,9.053z M17.296,10.261h1.675c0.086,0,0.112,0.083,0.155,0.156l0.914,1.552  c0.044,0.074-0.071,0.167-0.155,0.156l-2.589-0.329c-0.085-0.011-0.156-0.07-0.156-0.156v-1.223  C17.14,10.332,17.21,10.261,17.296,10.261L17.296,10.261z M19.126,13.43c0.945,0,1.712,0.766,1.712,1.711s-0.767,1.712-1.712,1.712  s-1.712-0.767-1.712-1.712S18.181,13.43,19.126,13.43L19.126,13.43z M19.126,14.275c0.479,0,0.865,0.388,0.865,0.865  c0,0.479-0.387,0.866-0.865,0.866c-0.478,0-0.865-0.388-0.865-0.866C18.261,14.663,18.648,14.275,19.126,14.275L19.126,14.275z   M9.068,14.275c-0.478,0-0.865,0.388-0.865,0.865c0,0.479,0.388,0.866,0.865,0.866c0.479,0,0.866-0.388,0.866-0.866  C9.934,14.663,9.546,14.275,9.068,14.275z"/><text x="0" y="39" fill="#000000" font-size="5px" font-weight="bold" font-family="'Helvetica Neue', Helvetica, Arial-Unicode, Arial, Sans-serif">Created by Alena</text><text x="0" y="44" fill="#000000" font-size="5px" font-weight="bold" font-family="'Helvetica Neue', Helvetica, Arial-Unicode, Arial, Sans-serif">from the Noun Project</text></svg>