<svg xmlns="http://www.w3.org/2000/svg" xmlns:xlink="http://www.w3.org/1999/xlink" version="1.1" x="0px" y="0px" viewBox="0 0 100 125" style="enable-background:new 0 0 100 100;" xml:space="preserve"><rect x="58" y="58" width="19.4" height="5"/><rect x="58" y="48.7" width="23.2" height="5"/><rect x="58" y="66.9" width="9.7" height="5"/><path d="M85,13.1H15.2c-7.6,0-13.8,6.9-13.8,15.3v42.4c0,8.4,6.2,15.3,13.8,15.3H85c7.6,0,13.8-6.9,13.8-15.3V28.4  C98.8,19.9,92.6,13.1,85,13.1z M15.2,18.5H85c4.6,0,8.4,4.4,8.4,9.9v2.6H6.8v-2.6C6.8,22.9,10.6,18.5,15.2,18.5z M85,80.6H15.2  c-4.6,0-8.4-4.4-8.4-9.9V36.4h86.5v34.4C93.4,76.2,89.6,80.6,85,80.6z"/><circle cx="60.2" cy="24.6" r="3.4"/><circle cx="70.7" cy="24.6" r="3.4"/><circle cx="81.8" cy="24.6" r="3.4"/><path d="M45.6,49.6c-0.1-0.6-0.6-1.1-1.2-1.1h-4.3c-0.5-4.2-3.4-7.4-6.9-7.4c-3.5,0-6.4,3.2-6.9,7.4h-4.3  c-0.6,0-1.2,0.5-1.2,1.1l-1.7,23.5c0,0.3,0.1,0.7,0.3,0.9c0.2,0.2,0.6,0.4,0.9,0.4h26.1c0.3,0,0.7-0.1,0.9-0.4  c0.2-0.3,0.3-0.6,0.3-0.9L45.6,49.6z M33.2,43.8c1.9,0,3.6,1.9,4.1,4.5h-8.2C29.6,45.7,31.3,43.8,33.2,43.8z M28.5,55.2  c-0.8,0-1.4-0.6-1.4-1.4c0-0.8,0.6-1.4,1.4-1.4c0.8,0,1.4,0.6,1.4,1.4C29.9,54.6,29.3,55.2,28.5,55.2z M37.8,55.2  c-0.8,0-1.4-0.6-1.4-1.4c0-0.8,0.6-1.4,1.4-1.4c0.8,0,1.4,0.6,1.4,1.4C39.2,54.6,38.5,55.2,37.8,55.2z"/><text x="0" y="115" fill="#000000" font-size="5px" font-weight="bold" font-family="'Helvetica Neue', Helvetica, Arial-Unicode, Arial, Sans-serif">Created by Aneeque Ahmed</text><text x="0" y="120" fill="#000000" font-size="5px" font-weight="bold" font-family="'Helvetica Neue', Helvetica, Arial-Unicode, Arial, Sans-serif">from the Noun Project</text></svg>