<svg xmlns="http://www.w3.org/2000/svg" xmlns:xlink="http://www.w3.org/1999/xlink" version="1.1" x="0px" y="0px" viewBox="0 0 100 90" style="enable-background:new 0 0 100 100;" xml:space="preserve"><g><path d="M83.7,26.3c0-0.8-0.3-1.6-0.9-2.2L66,6.1c-0.6-0.7-1.5-1-2.4-1h-42c-2.9,0-5.3,2.4-5.3,5.3v79.3c0,2.9,2.4,5.3,5.3,5.3   h56.9c2.9,0,5.3-2.4,5.3-5.3L83.7,26.3z M57.8,45.4c0.7-1.1,2-2.2,3.2-2.7c0.5-0.2,2.1-0.5,1.5,0.6c-0.8,1.7-1.2,3.4-1.1,5.2   c0.1,1.8,1.2,3.5,0.5,5.2c-0.3,0.8-1.3,1.5-2.1,1.7c-1.5,0.4-2.3-0.7-2.9-2C55.9,50.7,56.3,47.8,57.8,45.4z M36.5,46.8   c0.7-0.9,2.3-2.3,3.5-2.3c1.2,0,0.6,1.2,0.1,1.8c-1,1-1,2.5-0.6,3.8c0.4,1.4,1.4,2.2,2.4,3.3c0.6,0.6-1.9,2.4-2.4,2.3   c-2,0-3.9-1.1-4.5-3.1C34.2,50.4,35.1,48.4,36.5,46.8z M67.2,80.8c-9.5-12.5-24.9-15.9-38.1-6.7c-0.7,0.5-1,0.1-0.4-0.5   c12.2-11.4,33.4-10.5,43.2,3.5C72.8,78.4,68.1,82,67.2,80.8z M79.1,27.3h-11c-2.9,0-5.3-2.4-5.3-5.3V10.2c0-0.3,0.4-0.4,0.6-0.2   l16,16.7C79.5,26.9,79.4,27.3,79.1,27.3z"/></g></svg>
