<?xml version="1.0" encoding="UTF-8"?>
<svg width="416px" height="430px" viewBox="0 0 416 430" version="1.1" xmlns="http://www.w3.org/2000/svg" xmlns:xlink="http://www.w3.org/1999/xlink">
    <!-- Generator: Sketch 43.1 (39012) - http://www.bohemiancoding.com/sketch -->
    <title>Group</title>
    <desc>Created with Sketch.</desc>
    <defs></defs>
    <g id="Page-1" stroke="none" stroke-width="1" fill="none" fill-rule="evenodd">
        <g id="Group">
            <path d="M384.799,255.259 C365.448,262.059 346.019,268.648 326.519,275.028 C322.498,276.339 318.479,277.648 314.459,278.938 C310.328,280.269 306.188,281.589 302.049,282.898 C292.339,285.978 282.608,289.009 272.858,291.969 C264.179,294.618 255.488,297.228 246.778,299.788 C219.019,307.948 191.128,315.688 163.128,322.978 C154.719,325.169 146.298,327.318 137.869,329.429 C129.938,331.419 121.999,333.379 114.048,335.288 C113.329,335.469 112.608,335.639 111.878,335.818 C96.338,339.559 80.758,343.158 65.148,346.618 C52.949,349.339 40.728,351.969 28.488,354.509 C23.469,355.559 18.449,356.589 13.418,357.608 C9.169,307.889 11.958,251.908 35.338,207.829 C83.128,117.739 188.119,91.139 278.519,133.489 C290.328,139.028 302.408,146.039 313.988,154.298 C348.639,179.008 378.908,214.818 384.799,255.259" id="Fill-3" fill="#AADADE"></path>
            <path d="M384.799,255.259 C365.448,262.059 346.019,268.648 326.519,275.028 C322.498,276.339 318.479,277.648 314.459,278.938 L285.479,160.729 L313.988,154.298 C348.639,179.008 378.908,214.818 384.799,255.259" id="Fill-4" fill="#E2F3F5"></path>
            <path d="M302.049,282.898 C292.339,285.978 282.608,289.009 272.858,291.969 L243.059,190.128 L273.389,180.548 L302.049,282.898" id="Fill-5" fill="#E2F3F5"></path>
            <path d="M326.519,275.028 C322.498,276.339 318.479,277.648 314.459,278.938 C310.328,280.269 306.188,281.589 302.049,282.898 L273.389,180.548 L291.169,183.949 L298.908,185.429 L326.519,275.028" id="Fill-6" fill="#70ACB0"></path>
            <path d="M114.048,335.288 C113.329,335.469 112.608,335.639 111.878,335.818 C96.338,339.559 80.758,343.158 65.148,346.618 C63.789,336.259 62.429,325.898 61.079,315.538 C57.119,285.288 53.159,255.049 49.199,224.809 C63.858,220.119 78.369,215.438 93.028,210.758 C97.719,233.328 102.119,256.498 105.969,279.778 C109.039,298.299 111.778,316.889 114.048,335.288" id="Fill-7" fill="#E2F3F5"></path>
            <path d="M246.778,299.788 C219.019,307.948 191.128,315.688 163.128,322.978 C154.719,325.169 146.298,327.318 137.869,329.429 C129.938,331.419 121.999,333.379 114.048,335.288 C113.329,335.469 112.608,335.639 111.878,335.818 L93.028,210.758 L134.048,210.758 L141.918,259.868 L233.998,241.509 L246.778,299.788" id="Fill-8" fill="#70ACB0"></path>
            <path d="M137.869,329.429 C129.938,331.419 121.999,333.379 114.048,335.288 C113.329,335.469 112.608,335.639 111.878,335.818 C96.338,339.559 80.758,343.158 65.148,346.618 C52.949,349.339 40.728,351.969 28.488,354.509 L22.139,325.228 L61.079,315.538 L77.278,311.509 L73.479,287.988 L103.528,280.398 L105.969,279.778 L125.139,274.938 L137.869,329.429" id="Fill-9" fill="#527C86"></path>
            <path d="M163.128,322.978 C154.719,325.169 146.298,327.318 137.869,329.429 L125.139,274.938 L149.298,272.889 L163.128,322.978" id="Fill-10" fill="#5D909D"></path>
            <path d="M236.597,143.853 C233.481,142.214 232.09,137.835 234.199,134.854 C236.265,131.936 241.114,131.61 243.552,134.227 C243.161,132.169 242.806,129.396 243.019,127.313 C243.231,125.23 244.14,123.12 245.867,121.936 C247.595,120.753 250.211,120.787 251.599,122.355 C251.581,119.494 252.403,114.82 253.946,112.411 C255.489,110.002 258.22,108.229 261.077,108.384 C265.459,108.622 268.407,112.95 270.015,117.034 C271.536,120.899 272.511,124.979 272.9,129.115 C273.165,126.142 276.058,125.396 279.008,125.846 C282.123,126.32 283.531,129.32 283.938,132.083 C294.49,130.702 304.052,125.275 314.419,123.098 C315.719,122.824 317.329,122.668 318.13,123.729 C318.86,124.696 318.386,126.18 317.444,126.943 C309.485,133.398 296.904,134.498 287.335,137.446 C275.548,141.079 263.733,144.624 251.894,148.082 C243.067,150.659 234.228,153.191 225.372,155.668 C224.082,156.029 208.731,161.339 208.656,158.715 C208.499,153.171 216.729,151.21 220.733,149.326 C225.813,146.936 231.685,146.299 236.597,143.853" id="Fill-11" fill="#FEFCF7"></path>
            <path d="M8.235,225.77 C6.507,226.05 4.755,226.272 2.97,226.43 C2.36,226.482 1.67,226.501 1.225,226.081 C0.731,225.614 0.777,224.777 1.143,224.206 C1.51,223.635 2.115,223.268 2.702,222.927 C4.377,221.955 26.019,211.691 26.21,212.079 C25.176,209.987 23.307,207.393 24.994,205.024 C26.199,203.333 29.081,203.261 30.368,204.89 C29.525,202.568 30.351,198.911 31.256,196.612 C32.162,194.314 34.427,192.465 36.895,192.545 C39.365,192.624 41.653,195.036 41.176,197.459 C39.018,194.499 41.832,188.816 44.642,186.464 C47.452,184.113 51.751,183.966 54.959,185.737 C58.166,187.507 60.271,190.943 60.884,194.556 C61.433,197.792 60.682,201.039 59.991,204.154 C64.418,203.756 68.585,202.075 72.889,201.098 C75.785,200.444 79.056,200.145 81.55,201.54 C77.736,205.266 71.493,206.112 66.504,207.775 C55.14,211.565 43.779,215.234 32.488,219.037 C24.342,221.78 16.568,224.424 8.235,225.77" id="Fill-12" fill="#FEFCF7"></path>
            <path d="M411.625,342.132 C410.528,342.774 409.074,343.576 407.293,344.514 C377.38,360.377 256.339,416.418 244.092,421.467 C241.625,422.489 238.348,424.018 234.827,425.493 C228.166,428.275 220.64,430.826 216.16,429.256 C201.605,424.133 151.688,367.017 147.64,354.4 C145.901,348.973 154.754,344.599 160.172,341.784 C160.826,341.447 161.437,341.131 161.964,340.836 C178.006,331.95 305.698,282.054 316.586,279.524 C320.464,278.618 324.47,277.143 328.464,276.109 C334.746,274.486 341.027,273.97 346.825,278.502 C357.544,286.892 393.707,314.096 400.632,320.135 C405.648,324.498 422.323,335.871 411.625,342.132" id="Fill-13" fill="#EBD4C8"></path>
            <path d="M147.472,312.971 C146.93,317.561 145.625,336.589 149.989,341.844 C152.468,344.828 192.396,388.146 198.858,393.555 C202.817,396.868 207.842,401.266 213.208,401.885 C230.532,403.885 396.196,319.539 400.889,317.478 C404.306,315.978 401.996,303.21 401.313,297.394 L147.472,312.971" id="Fill-14" fill="#4D4247"></path>
            <path d="M394.538,314.478 C362.919,329.028 330.229,345.459 298.148,360.818 C294.248,362.679 290.358,364.538 286.479,366.358 C267.419,375.358 248.648,383.849 230.528,391.198 C230.299,388.898 230.349,383.698 229.919,381.688 C248.389,373.148 266.948,364.608 285.549,356.068 C321.828,339.408 357.948,322.209 393.979,305.549 C394.398,308.228 394.538,311.514 394.538,314.478" id="Fill-15" fill="#B8A99D"></path>
            <path d="M286.479,366.358 C267.419,375.358 248.648,383.849 230.528,391.198 C230.299,388.898 230.349,383.698 229.919,381.688 C248.389,373.148 266.948,364.608 285.549,356.068 L286.479,366.358" id="Fill-16" fill="#73963E"></path>
            <path d="M398.089,303.288 C397.049,303.898 395.669,304.658 393.979,305.549 C365.599,320.599 250.759,373.769 239.139,378.559 C236.799,379.528 233.688,380.978 230.349,382.379 C224.028,385.019 216.889,387.438 212.639,385.948 C198.829,381.089 151.469,326.898 147.628,314.929 C145.979,309.778 154.378,305.629 159.519,302.959 C160.139,302.639 160.719,302.339 161.219,302.059 C176.438,293.629 297.589,246.288 307.919,243.889 C311.599,243.028 315.398,241.629 319.188,240.648 C325.148,239.108 331.108,238.618 336.608,242.919 C346.778,250.879 381.089,276.688 387.658,282.419 C392.419,286.559 408.238,297.349 398.089,303.288" id="Fill-17" fill="#716E7D"></path>
            <path d="M393.979,305.549 C377.988,314.028 334.528,334.618 297.568,351.828 C293.519,353.719 289.549,355.559 285.709,357.339 C285.639,357.368 285.568,357.408 285.498,357.438 C262.229,368.228 243.479,376.778 239.139,378.559 C236.799,379.528 233.688,380.978 230.349,382.379 C226.509,377.629 222.608,372.898 218.658,368.209 C216.398,365.519 214.108,362.828 211.799,360.158 C194.929,340.528 177.258,321.448 159.519,302.959 C160.139,302.639 160.719,302.339 161.219,302.059 C167.238,298.728 189.838,289.299 215.599,278.969 C219.559,277.389 223.599,275.778 227.658,274.169 C250.799,264.988 274.769,255.738 290.559,249.908 C294.959,248.278 298.729,246.908 301.658,245.889 C304.719,244.828 306.879,244.129 307.919,243.889 C311.599,243.028 315.398,241.629 319.188,240.648 C322.948,243.948 326.719,247.248 330.519,250.559 C333.608,253.248 336.709,255.948 339.818,258.639 C351.778,269.019 363.849,279.398 375.828,289.769 L386.959,299.429 C389.309,301.469 391.648,303.509 393.979,305.549" id="Fill-18" fill="#DDCABD"></path>
            <path d="M312.229,279.728 L259.669,309.728 L227.658,274.169 C250.799,264.988 274.769,255.738 290.559,249.908 L312.229,279.728" id="Fill-19" fill="#83AB3F"></path>
            <path d="M171.639,340.228 C173.389,343.478 185.764,356.999 187.639,358.478 C190.014,360.353 198.903,353.128 199.514,351.541 C200.139,349.916 184.826,334.603 182.764,333.079 C180.843,331.66 170.121,337.411 171.639,340.228" id="Fill-20" fill="#393439"></path>
            <path d="M174.031,341.103 C174.031,341.103 187.264,355.478 188.514,356.228 C189.764,356.978 196.264,352.103 196.889,351.103 C197.514,350.103 183.514,336.228 182.639,335.603 C181.764,334.978 172.858,339.734 174.031,341.103" id="Fill-21" fill="#565960"></path>
            <path d="M366.616,273.759 C361.815,269.39 357.016,265.02 352.215,260.65 C350.79,259.353 348.662,261.469 350.094,262.771 C354.895,267.142 359.694,271.511 364.495,275.88 C365.92,277.178 368.048,275.061 366.616,273.759" id="Fill-22" fill="#B8C5CD"></path>
            <path d="M386.959,299.429 C386.959,299.429 332.509,338.509 299.868,301.049 L268.738,319.799 L297.568,351.828 C293.519,353.719 289.549,355.559 285.709,357.339 L273.469,343.658 L218.658,368.209 C216.398,365.519 214.108,362.828 211.799,360.158 L265.839,335.118 L215.599,278.969 C219.559,277.389 223.599,275.778 227.658,274.169 L259.669,309.728 C274.248,301.349 312.229,279.728 312.229,279.728 L290.559,249.908 C294.959,248.278 298.729,246.908 301.658,245.889 L310.788,258.618 L330.519,250.559 C333.608,253.248 336.709,255.948 339.818,258.639 L317.519,268.009 L328.748,283.658 L311.209,294.219 C320.328,302.589 343.659,315.74 378.469,292.06 L386.959,299.429" id="Fill-23" fill="#FFFFFE"></path>
            <path d="M298.148,360.817 C294.247,362.682 290.354,364.536 286.482,366.361 L285.652,357.165 L297.548,351.732 L298.148,360.817" id="Fill-24" fill="#D6D5CE"></path>
            <path d="M285.648,357.169 L285.498,357.438 C262.229,368.228 243.479,376.778 239.139,378.559 C236.799,379.528 233.688,380.978 230.349,382.379 C226.509,377.629 222.608,372.898 218.658,368.209 L273.469,343.658 L285.648,357.169" id="Fill-25" fill="#83AB3F"></path>
            <polyline id="Fill-26" fill="#AF9680" points="193.315 294.509 213.215 285.228 236.773 312.973 217.489 321.728 193.315 294.509"></polyline>
            <polyline id="Fill-27" fill="#AF9680" points="224.075 332.857 233.69 345.822 253.113 335.547 243.794 325.228 224.075 332.857"></polyline>
            <polyline id="Fill-28" fill="#AF9680" points="203.755 343.658 218.658 335.547 226.949 348.639 212.314 356.068 203.755 343.658"></polyline>
            <polyline id="Fill-29" fill="#AF9680" points="276.749 321.728 286.479 316.228 291.9 325.228 283.111 330.228 276.749 321.728"></polyline>
            <polyline id="Fill-30" fill="#AF9680" points="285.648 332.857 302.639 323.228 318.639 338.478 298.148 347.478 285.648 332.857"></polyline>
            <polyline id="Fill-31" fill="#AF9680" points="326.139 270.728 338.639 264.695 344.139 273.728 330.639 279.818 326.139 270.728"></polyline>
            <path d="M161.006,342.377 C158.865,340.24 156.725,338.103 154.584,335.966 C153.216,334.601 151.094,336.721 152.463,338.088 C154.604,340.225 156.744,342.361 158.885,344.499 C160.253,345.864 162.375,343.744 161.006,342.377" id="Fill-32" fill="#2E2B2C"></path>
            <path d="M163.305,345.228 C161.375,345.228 161.372,348.228 163.305,348.228 C165.235,348.228 165.239,345.228 163.305,345.228" id="Fill-33" fill="#2E2B2C"></path>
            <path d="M194.02,376.303 C193.653,378.346 193.109,381.411 192.564,384.63 C198.402,389.943 204.663,394.774 211.122,398.975 C211.866,396.125 212.184,392.944 212.125,389.999 C205.753,385.902 199.705,381.31 194.02,376.303" id="Fill-34" fill="#584C52"></path>
            <path d="M219.456,398.849 C219.221,395.768 218.867,392.544 218.633,389.463 C217.49,389.919 215.85,390.037 214.634,389.853 C214.733,392.854 214.834,395.855 214.934,398.856 C215.983,399.326 218.327,399.071 219.456,398.849" id="Fill-35" fill="#584C52"></path>
            <path d="M392.767,293.688 C392.684,293.68 392.602,293.67 392.52,293.661 C391.736,293.575 390.985,294.412 391.02,295.161 C391.059,296.048 391.681,296.569 392.52,296.661 C392.602,296.67 392.684,296.68 392.767,296.688 C393.549,296.774 394.3,295.937 394.267,295.188 C394.227,294.303 393.604,293.78 392.767,293.688" id="Fill-36" fill="#B8C5CD"></path>
            <path d="M207.747,203.237 C206.39,205.896 205.202,208.612 204.154,211.383 C202.472,204.692 199.441,198.017 196.7,191.953 C192.915,183.582 188.272,175.592 182.634,168.329 C172.272,154.981 158.663,144.479 142.645,138.894 C140.35,138.093 139.375,141.72 141.644,142.525 C157.292,148.073 170.591,158.765 180.49,171.997 C185.398,178.557 189.497,185.713 192.916,193.152 C196.339,200.6 198.191,208.621 201.292,216.127 C197.54,214.643 193.698,213.036 189.803,212.343 C188.358,212.086 187.367,213.991 188.762,214.814 C193.116,217.382 198.35,218.786 203.076,220.542 C203.963,220.872 204.99,220.169 205.226,219.321 C206.607,214.353 208.449,209.615 210.81,205.027 C211.853,203 208.786,201.203 207.747,203.237" id="Fill-37" fill="#70ACB0"></path>
            <path d="M87.208,33.075 C87.154,32.747 86.659,32.629 86.45,32.875 C84.627,35.02 84.292,38.216 83.645,40.894 C82.888,44.025 81.932,47.22 81.709,50.441 C81.647,51.354 82.914,51.386 83.198,50.643 C84.398,47.511 84.968,44.081 85.814,40.834 C86.474,38.305 87.632,35.694 87.208,33.075" id="Fill-38" fill="#4C382C"></path>
            <path d="M118.953,38.65 C115.122,33.483 107.89,31.026 101.015,30.56 C91.997,29.947 87.26,32.66 86.261,33.76 C85.206,32.198 76.633,26.988 70.051,25.597 C64.324,24.39 57.212,25.673 53.587,27.602 C53.617,27.083 53.668,26.557 53.74,26.038 C55.505,12.521 69.728,-0.888 91.319,0.879 C108.764,2.298 119.16,18.548 119.732,31.942 C119.818,34.048 119.359,36.76 118.953,38.65" id="Fill-39" fill="#D0352F"></path>
            <path d="M118.953,38.65 C115.122,33.483 107.89,31.026 101.015,30.56 C91.997,29.947 87.26,32.66 86.261,33.76 C85.206,32.198 76.633,26.988 70.051,25.597 C64.324,24.39 57.212,25.673 53.587,27.602 C53.587,27.602 56.721,19.716 63.258,18.561 C69.796,17.399 74.808,20.137 75.93,22.944 C75.93,22.944 80.725,18.667 87.606,18.137 C94.488,17.606 101.774,22.507 102.303,26.621 C102.303,26.621 107.854,21.955 112.515,23.292 C117.176,24.622 119.353,33.117 118.953,38.65" id="Fill-40" fill="#702220"></path>
            <path d="M118.398,38.607 C111.931,40.145 105.507,41.878 99.118,43.712 C94.4,45.066 89.34,46.2 84.724,48.073 C91.838,41.966 97.889,33.526 103.26,26.088 C103.832,25.297 102.539,24.579 101.965,25.331 C98.474,29.91 94.94,34.432 91.164,38.78 C88.497,41.851 85.476,44.696 82.912,47.858 C82.901,47.853 82.89,47.85 82.879,47.844 C82.309,43.724 81.378,39.663 80.368,35.627 C79.247,31.154 78.272,26.273 75.937,22.262 C75.598,21.68 74.838,22.102 74.923,22.69 C75.582,27.229 77.526,31.646 78.753,36.072 C79.809,39.878 80.619,43.739 81.542,47.576 C78.618,44.319 75.027,41.759 71.477,39.186 C65.823,35.09 60.233,30.443 54.081,27.129 C53.519,26.826 52.889,27.571 53.381,28.037 C61.675,35.893 72.275,40.933 80.267,49.126 C73.009,52.957 66.115,57.83 59.238,62.236 C52.522,66.538 46.035,71.073 40.768,77.125 C39.636,78.426 41.804,79.99 42.925,78.703 C53.539,66.518 69.128,60.382 81.792,50.729 C81.996,50.907 82.24,50.954 82.479,50.908 C91.4,61.498 98.523,73.037 104.818,85.373 C105.433,86.577 107.278,85.753 106.738,84.501 C101.351,72.014 93.634,60.402 84.875,50.004 C90.156,48.85 95.384,46.773 100.542,45.303 C106.632,43.567 112.759,41.977 118.888,40.385 C120.038,40.086 119.552,38.332 118.398,38.607" id="Fill-41" fill="#684A38"></path>
            <path d="M12.881,139.761 C30.15,147.676 57.166,159.219 75.457,167.569 C81.409,166.739 87.125,165.698 92.635,164.547 C97.93,163.447 103.026,162.237 107.94,160.993 C115.977,158.973 123.529,156.879 130.66,155.04 C111.377,147.151 83.51,137.062 62.888,129.568 C48.033,129.933 25.71,135.088 12.881,139.761" id="Fill-42" fill="#9E6E45"></path>
            <path d="M27.354,136.056 C31.542,137.834 35.422,139.526 39.452,141.64 C43.173,140.646 46.859,138.696 50.581,137.702 C47.836,136.166 44.665,134.309 41.921,132.773 C36.797,133.263 32.308,134.661 27.354,136.056" id="Fill-43" fill="#795436"></path>
            <path d="M12.881,139.761 C17.609,138.514 22.453,137.253 27.354,136.056 C32.165,134.874 37.041,133.763 41.921,132.773 C48.951,131.359 55.986,130.205 62.888,129.568 C65.821,110.123 68.856,91.421 69.236,70.13 C62.726,71.509 55.994,73.09 49.217,74.708 C44.178,75.907 39.112,77.136 34.1,78.313 C29.378,79.416 24.708,80.484 20.154,81.451 C18.361,100.708 14.665,120.503 12.881,139.761" id="Fill-44" fill="#C18E59"></path>
            <path d="M62.891,129.57 C65.282,109.007 67.071,91.662 69.237,70.126 C91.889,78.717 114.027,88.113 136.678,96.704 C136.959,115.732 132.812,138.928 130.662,155.038 C105.281,146.883 87.353,138.689 62.891,129.57" id="Fill-45" fill="#F7C891"></path>
            <path d="M33.195,86.936 C34.859,86.527 43.458,85.396 48.066,83.91 C48.455,80.843 48.836,77.775 49.217,74.708 C44.178,75.907 39.112,77.136 34.1,78.313 C33.817,80.98 33.567,83.399 33.195,86.936" id="Fill-46" fill="#A7794E"></path>
            <path d="M27.354,136.056 C32.165,134.874 37.041,133.763 41.921,132.773 C42.367,130.01 42.813,127.248 43.259,124.493 C38.307,124.935 33.509,125.521 28.557,125.955 C28.026,129.072 27.606,132.668 27.354,136.056" id="Fill-47" fill="#A7794E"></path>
            <path d="M84.481,160.421 C86.521,161.617 90.476,163.187 92.635,164.547 C97.93,163.447 103.026,162.237 107.94,160.993 C104.518,159.51 99.306,157.843 95.884,156.36 C90.979,157.561 88.149,159.388 84.481,160.421" id="Fill-48" fill="#795436"></path>
            <path d="M121.636,143.93 C122.659,142.5 124.368,140.886 125.888,139.617 C126.67,141.584 127.152,143.494 127.331,145.495 C126.817,145.441 126.323,145.364 125.844,145.268 C125.595,146.354 125.347,147.441 125.099,148.528 C124.112,148.206 123.125,147.883 122.137,147.561 C122.418,146.552 122.846,145.535 123.197,144.522 C122.676,144.338 122.158,144.141 121.636,143.93" id="Fill-49" fill="#795436"></path>
            <path d="M115.953,136.43 C115.505,137.371 115.008,138.579 114.979,139.621 C114.95,140.663 115.468,141.796 116.447,142.153 C117.506,142.539 118.716,141.876 119.326,140.929 C119.935,139.981 120.086,138.82 120.223,137.702 C118.915,137.338 117.262,136.793 115.953,136.43" id="Fill-50" fill="#795436"></path>
            <path d="M114.387,144.383 C114.755,144.494 115.124,144.606 115.493,144.718 C115.74,143.748 115.987,142.778 116.235,141.809 C116.362,141.31 117.109,141.604 116.983,142.1 C116.741,143.05 116.499,143.999 116.257,144.949 C116.56,145.04 116.862,145.132 117.166,145.224 C117.66,145.373 117.367,146.121 116.874,145.972 C115.947,145.691 115.021,145.411 114.095,145.131 C113.601,144.981 113.894,144.234 114.387,144.383" id="Fill-51" fill="#795436"></path>
            <path d="M38.563,132.015 C48.747,138.312 59.287,143.614 70.201,148.525 C70.225,148.537 70.25,148.547 70.273,148.558 C70.966,148.31 71.653,148.062 72.327,147.815 C79.308,145.256 87.177,142.017 94.625,141.377 C95.355,141.314 95.761,142.34 95.018,142.662 C88.069,145.674 80.342,147.134 73.202,149.744 C73.153,149.761 73.105,149.782 73.056,149.8 C82.259,153.895 91.591,157.902 100.243,163.058 C100.974,163.493 100.29,164.767 99.52,164.378 C89.983,159.565 80.312,155.142 70.579,150.764 C64.368,153.309 58.307,156.617 51.975,158.566 C51.175,158.812 50.29,157.775 51.123,157.191 C55.925,153.822 61.966,151.539 67.716,149.474 C67.658,149.448 67.6,149.421 67.542,149.395 C57.243,144.776 46.746,140.004 37.436,133.554 C36.418,132.848 37.53,131.376 38.563,132.015" id="Fill-52" fill="#4C382C"></path>
            <path d="M96.454,127.312 C97.542,122.394 98.563,117.46 99.521,112.514 C100.479,107.568 101.373,102.61 102.205,97.642 C102.996,92.908 103.404,87.949 104.817,83.355 C105.061,82.562 106.11,82.972 106.123,83.671 C106.211,88.906 104.972,94.283 104.115,99.435 C103.288,104.403 102.391,109.36 101.428,114.304 C100.465,119.248 99.437,124.179 98.344,129.096 C97.335,133.634 96.753,139.025 94.663,143.197 C94.265,143.991 93.133,143.739 93.153,142.832 C93.265,137.708 95.343,132.333 96.454,127.312" id="Fill-53" fill="#5D4333"></path>
            <path d="M42.274,76.565 C42.388,76.16 43.099,76.224 43.117,76.652 C43.51,85.752 41.718,95.145 41.033,104.223 C40.678,108.928 40.371,113.637 40.114,118.349 C39.845,123.262 40.052,128.404 39.262,133.256 C39.128,134.074 37.808,134.226 37.721,133.305 C36.85,124.05 38.339,114.064 39.027,104.807 C39.714,95.556 39.768,85.532 42.274,76.565" id="Fill-54" fill="#543D2F"></path>
            <path d="M53.696,122.16 C54.727,121.629 55.973,121.772 57.113,121.71 C58.414,121.64 59.78,121.439 61.069,121.658 C61.388,121.712 61.415,122.208 61.103,122.296 C59.844,122.651 58.465,122.597 57.165,122.666 C56.023,122.726 54.8,123 53.719,122.582 C53.555,122.519 53.54,122.24 53.696,122.16" id="Fill-55" fill="#805F3E"></path>
            <path d="M47.715,122.534 C48.454,122.288 49.23,122.242 50.003,122.198 C50.675,122.159 51.419,122.006 52.04,122.302 C52.163,122.36 52.173,122.546 52.057,122.617 C51.471,122.977 50.714,122.904 50.042,122.937 C49.269,122.975 48.493,123.012 47.732,122.846 C47.576,122.812 47.564,122.584 47.715,122.534" id="Fill-56" fill="#805F3E"></path>
            <path d="M59.124,124.148 C59.507,124.121 59.893,124.103 60.277,124.092 C60.56,124.084 60.817,124.072 61.021,124.239 C61.042,124.242 61.063,124.245 61.083,124.248 C61.356,124.283 61.38,124.728 61.113,124.792 C61.092,124.797 61.071,124.802 61.051,124.807 C60.867,124.995 60.609,125.01 60.327,125.033 C59.944,125.062 59.558,125.086 59.174,125.099 C58.562,125.121 58.511,124.192 59.124,124.148" id="Fill-57" fill="#805F3E"></path>
            <path d="M48.286,125.03 C49.827,124.696 51.377,124.574 52.948,124.472 C54.495,124.372 56.14,124.111 57.665,124.433 C57.934,124.49 57.956,124.886 57.693,124.971 C56.211,125.454 54.548,125.369 52.999,125.434 C51.426,125.5 49.872,125.543 48.305,125.375 C48.132,125.357 48.117,125.067 48.286,125.03" id="Fill-58" fill="#805F3E"></path>
            <path d="M55.506,126.806 C57.279,126.836 59.146,126.549 60.9,126.733 C61.24,126.769 61.245,127.303 60.935,127.391 C59.268,127.864 57.27,127.715 55.553,127.674 C54.998,127.661 54.945,126.796 55.506,126.806" id="Fill-59" fill="#805F3E"></path>
            <path d="M52.521,126.83 C52.737,126.822 52.959,126.801 53.175,126.808 C53.272,126.811 53.38,126.822 53.476,126.841 C53.595,126.865 53.703,126.933 53.822,126.947 C54.104,126.979 54.129,127.45 53.852,127.512 C53.735,127.538 53.634,127.617 53.52,127.653 C53.425,127.684 53.322,127.706 53.224,127.719 C53.009,127.748 52.788,127.75 52.571,127.767 C51.969,127.811 51.916,126.85 52.521,126.83" id="Fill-60" fill="#805F3E"></path>
            <path d="M102.303,26.621 C105.19,18.03 102.533,1.206 90.738,0.794 C78.944,0.381 75.93,22.944 75.93,22.944 C75.93,22.944 80.725,18.667 87.606,18.137 C94.488,17.606 101.774,22.507 102.303,26.621" id="Fill-61" fill="#DBBFB8"></path>
            <path d="M232.275,281.77 C229.275,287.619 223.346,298.939 215.466,298.039 C211.306,297.56 207.896,294.26 205.056,290.369 C202.505,286.89 200.426,282.939 198.676,280.169 C192.886,270.97 189.525,256.459 194.056,246.209 C196.646,240.329 201.216,235.989 206.545,233.64 C212.846,230.859 220.226,230.85 226.706,234.339 C228.096,235.079 229.436,235.989 230.726,237.069 C243.426,247.709 238.796,269.039 232.275,281.77" id="Fill-62" fill="#D0352F"></path>
            <path d="M230.726,237.069 C229.436,235.989 228.096,235.079 226.706,234.339 C222.97,232.327 218.935,231.484 214.979,231.659 C218.29,231.801 221.611,232.662 224.726,234.339 C226.116,235.079 227.456,235.989 228.746,237.069 C241.446,247.709 236.816,269.039 230.296,281.77 C227.537,287.148 222.3,297.145 215.349,298.02 C215.388,298.025 215.426,298.035 215.466,298.039 C223.346,298.939 229.275,287.619 232.275,281.77 C238.796,269.039 243.426,247.709 230.726,237.069" id="Fill-63" fill="#D5726A"></path>
            <path d="M229.176,267.359 C227.365,269.689 224.926,271.449 222.206,272.569 C221.075,273.039 219.896,273.39 218.695,273.619 C215.546,274.249 212.235,274.039 209.235,272.89 C202.335,270.249 197.585,262.85 198.016,255.479 C198.686,243.899 209.825,237.739 219.506,239.939 C220.686,240.209 221.836,240.6 222.956,241.119 C224.035,241.619 225.086,242.249 226.065,243.02 C227.365,244.01 228.575,245.239 229.615,246.699 C233.916,252.709 233.716,261.539 229.176,267.359" id="Fill-64" fill="#F9D371"></path>
            <path d="M209.235,272.89 C202.335,270.249 197.585,262.85 198.016,255.479 C198.686,243.899 209.825,237.739 219.506,239.939 C222.006,249.689 214.886,263.859 209.235,272.89" id="Fill-65" fill="#EDBE54"></path>
            <path d="M222.206,272.569 C221.075,273.039 219.896,273.39 218.695,273.619 C222.275,263.089 223.706,252.169 222.956,241.119 C224.035,241.619 225.086,242.249 226.065,243.02 C226.525,253.039 225.226,262.979 222.206,272.569" id="Fill-66" fill="#EDBE54"></path>
        </g>
    </g>
</svg>