
<svg width="36px" height="26px" viewBox="0 0 36 26" version="1.1" xmlns="http://www.w3.org/2000/svg" xmlns:xlink="http://www.w3.org/1999/xlink">
    <!-- Generator: Sketch 43.1 (39012) - http://www.bohemiancoding.com/sketch -->
    <desc>Created with Sketch.</desc>
    <defs></defs>
    <g id="Welcome" stroke="none" stroke-width="1" fill="none" fill-rule="evenodd">
        <g id="Mobile-Portrait-Copy" transform="translate(-16.000000, -12.000000)">
            <g id="logo" transform="translate(10.000000, 9.000000)">
                <g id="Group-3" transform="translate(6.000000, 3.000000)">
                    <g id="Group-2" transform="translate(7.973666, 0.000000)" fill="#2E3938">
                        <g id="Group-Copy" fill-rule="nonzero">
                            <path d="M0.0436856122,24.7067099 C-0.0427713225,25.4129674 0.487478465,25.9848377 1.22451348,25.9833184 L26.6698414,25.9308675 C27.4084516,25.929345 27.9369572,25.4565539 27.8506693,24.8766868 L25.4856554,8.68075251 C25.3991985,8.07761682 24.7354388,7.50631105 23.9913314,7.40378973 L19.9729071,6.85014088 L19.9729071,5.72693317 C19.9729071,5.72693317 19.9729071,1.23410141 13.9471774,0.156058938 C7.92144775,-0.921983453 7.92144775,3.9673789 7.92144775,3.9673789 L7.92144775,5.18971974 C7.92144775,5.86479994 8.52532656,6.49029414 9.26620998,6.58627691 L15.955754,7.45291925 L15.955754,6.29666717 L9.26049879,5.37421097 L9.26049879,4.16288493 C9.26049879,4.16288493 9.26049879,0.528902807 13.9471774,1.32883321 C18.6338561,2.12876342 18.6338561,5.53142714 18.6338561,5.53142714 L18.6338561,6.66564964 C18.6338561,7.29206343 19.2275287,7.87678349 19.971636,7.97318391 L23.9900603,8.49377794 L26.4673129,24.8614991 L1.42704202,24.7071383 L3.90429462,5.89163123 L5.24334566,6.06510767 L5.24334566,4.82073726 L2.56524357,4.45175478 L0.0436856122,24.7067099 Z" id="Shape"></path>
                        </g>
                        <path d="M11.7246818,19.6279318 L9.33430967,19.5601143 L9.45245768,18.8187369 L7.63048009,18.7420307 L8.84101662,12.2597894 L12.4136013,12.9097416 L11.7246818,19.6279318 Z M10.9259389,13.1195253 L10.3827763,17.1530716 L9.88143642,17.1151826 L10.4731534,13.042845 L9.34874816,12.8511441 L8.40513073,18.2686432 L10.208328,18.3613224 L10.1117847,19.0915943 L11.4256977,19.1406799 L12.0654613,13.3112262 L10.9259389,13.1195253 Z M15.8628212,19.744877 L13.4605922,19.6770596 L13.5135401,18.9888025 L11.6781515,18.9120962 L12.3046543,12.8902314 L15.9908743,13.5401836 L15.8628212,19.744877 Z M14.3968514,13.6979063 L14.1917637,17.4388589 L13.6839848,17.4009699 L13.9310344,13.621226 L12.7740505,13.4295251 L12.3002486,18.4683735 L14.1191963,18.5610527 L14.0844072,19.2396905 L15.406662,19.288776 L15.5689524,13.8896072 L14.3968514,13.6979063 Z M19.6514083,14.1660832 L19.9913705,19.8609796 L15.7045676,19.7404153 L15.8523716,13.516131 L19.6514083,14.1660832 Z M15.9895113,13.9579638 L15.8788198,19.3062789 L19.065878,19.4240843 L18.8558503,14.4180458 L15.9895113,13.9579638 Z M17.6702826,15.2353428 L17.721007,18.3249808 L17.2008244,18.2939373 L17.182182,15.1700717 L17.6702826,15.2353428 Z" id="440-copy" stroke="#2E3938" stroke-width="0.5"></path>
                    </g>
                    <rect id="Rectangle-2" fill="#2D3938" transform="translate(6.178707, 7.702437) rotate(8.000000) translate(-6.178707, -7.702437) " x="3.40463511" y="6.94062199" width="5.54814319" height="1.52362949"></rect>
                    <rect id="Rectangle-2-Copy-2" fill="#2D3938" transform="translate(4.087669, 13.256233) rotate(8.000000) translate(-4.087669, -13.256233) " x="0.0987211391" y="12.4944185" width="7.97789668" height="1.52362949"></rect>
                    <rect id="Rectangle-2-Copy" fill="#2D3938" transform="translate(4.743779, 18.878940) rotate(7.000000) translate(-4.743779, -18.878940) " x="1.96970713" y="18.1171252" width="5.54814319" height="1.52362949"></rect>
                </g>
            </g>
        </g>
    </g>
</svg>
